<?xml version="1.0" standalone="no"?>
<!DOCTYPE svg PUBLIC "-//W3C//DTD SVG 20010904//EN"
 "http://www.w3.org/TR/2001/REC-SVG-20010904/DTD/svg10.dtd">
<svg version="1.0" xmlns="http://www.w3.org/2000/svg"
 width="16.000000pt" height="16.000000pt" viewBox="0 0 16.000000 16.000000"
 preserveAspectRatio="xMidYMid meet">
<metadata>
Created by potrace 1.11, written by Peter Selinger 2001-2013
</metadata>
<g transform="translate(0.000000,16.000000) scale(0.005461,-0.005461)"
fill="#000000" stroke="none">
<path d="M1325 2883 c-565 -47 -1059 -436 -1240 -976 -96 -286 -93 -622 6
-905 169 -478 575 -828 1076 -929 133 -26 414 -24 549 5 149 32 245 66 379
132 412 205 699 571 792 1010 27 128 24 381 -6 519 -58 269 -183 493 -391 701
-127 128 -241 210 -395 287 -244 122 -517 177 -770 156z m366 -133 c306 -62
588 -224 785 -450 451 -519 426 -1239 -61 -1725 -159 -160 -341 -271 -564
-345 -682 -227 -1410 128 -1655 808 -94 262 -94 592 0 854 171 475 597 815
1100 878 97 12 282 3 395 -20z"/>
<path d="M590 1460 l0 -650 88 0 88 0 -4 518 c-3 327 -1 513 5 507 6 -5 191
-236 412 -512 l403 -503 105 0 c62 0 103 4 101 10 -1 5 -235 295 -518 644
l-515 636 -82 0 -83 0 0 -650z"/>
<path d="M862 2101 c2 -6 169 -215 371 -466 274 -339 372 -454 381 -446 7 6
127 154 267 331 l254 320 3 -510 2 -510 90 0 90 0 0 645 0 645 -92 0 -93 0
-259 -315 c-142 -174 -262 -318 -267 -320 -4 -3 -130 139 -279 315 l-271 320
-101 0 c-58 0 -98 -4 -96 -9z"/>
</g>
</svg>
